<?xml version="1.0" standalone="no"?>
<svg viewBox="0 0 200 200" xmlns="http://www.w3.org/2000/svg">
  <path fill="#B7E8C1" d="M38.8,-66.9C52.6,-59.2,67.7,-53.5,75.5,-42.7C83.4,-31.8,84,-15.9,81.1,-1.6C78.3,12.6,71.9,25.2,62.9,34.1C53.9,42.9,42.3,48,31.4,58.2C20.4,68.5,10.2,83.9,-2,87.4C-14.3,90.9,-28.6,82.6,-41.2,73.3C-53.9,64.1,-64.9,54,-66.6,41.6C-68.3,29.2,-60.7,14.6,-56,2.7C-51.3,-9.2,-49.5,-18.4,-48.4,-31.8C-47.3,-45.1,-46.8,-62.7,-38.9,-73.8C-30.9,-84.8,-15.4,-89.4,-1.5,-86.8C12.5,-84.3,25,-74.6,38.8,-66.9Z" transform="translate(100 100)" />
</svg>
