<svg width="627" height="276" viewBox="0 0 627 276" fill="none" xmlns="http://www.w3.org/2000/svg">
<g clip-path="url(#clip0_8_2)">
<path d="M186.534 227.25C184.379 244.143 176.452 259.599 167.996 274.487C167.717 274.994 167.429 275.493 167.135 276H79.2485C77.471 275.538 75.7165 275.032 73.9693 274.487C64.0428 271.464 54.6715 266.853 46.2195 260.832C13.8862 237.531 1.44441 193.502 7.0641 154.049C10.5585 129.538 21.3133 104.512 42.2561 91.311C53.3138 84.3284 67.5176 82.0588 80.2467 84.6537C80.5798 84.7142 80.9126 84.7899 81.2527 84.8579C92.2044 87.3242 101.961 93.452 107.513 103.325C117.496 121.065 111.551 143.042 106.643 162.787C101.749 182.532 99.0945 206.166 113.299 220.729C108.609 206.922 113.238 190.453 124.439 181.117C132.903 174.074 144.686 171.434 155.434 173.62C156.462 173.84 157.476 174.089 158.474 174.392C160.887 175.099 163.214 176.073 165.41 177.297C182.163 186.655 188.947 208.208 186.534 227.25Z" fill="#D3F1D9"/>
<path d="M134.423 274.487C136.858 275.054 139.301 275.554 141.759 276H128.471C126.731 275.531 124.999 275.032 123.282 274.487C119.508 273.307 115.792 271.953 112.134 270.424C97.4609 264.266 83.9452 255.022 73.7196 242.721C68.7186 236.761 64.6348 230.088 61.6031 222.923C58.3157 214.824 56.2265 206.289 55.4014 197.587C53.5483 179.733 55.4391 161.387 58.9711 143.851C62.6161 125.676 68.4999 108.023 76.4879 91.2959C77.4484 89.2912 78.4418 87.299 79.4678 85.3194C79.5384 85.1565 79.6452 85.0118 79.7802 84.8964C79.9152 84.781 80.0747 84.698 80.2467 84.6537C80.5958 84.586 80.9575 84.6594 81.2527 84.8579C81.6069 85.0612 81.8695 85.3928 81.9863 85.7842C82.1032 86.1755 82.0653 86.5968 81.8805 86.9611C73.6445 103.026 67.4013 120.038 63.2897 137.618C59.2662 154.768 56.982 172.712 57.7609 190.347C58.5021 206.824 62.806 223.029 72.57 236.502C81.4871 248.803 93.8001 258.502 107.422 265.106C116.044 269.232 125.101 272.379 134.423 274.487V274.487Z" fill="white"/>
<path d="M163.587 276H159.669C159.231 275.501 158.807 274.994 158.391 274.487C149.467 263.642 143.422 250.72 140.814 236.918C137.647 219.694 140.11 201.908 147.84 186.194C149.997 181.787 152.538 177.58 155.434 173.62C156.462 173.84 157.476 174.089 158.474 174.392C150.857 184.487 145.733 196.24 143.521 208.693C141.548 220.361 142.204 232.323 145.442 243.706C148.679 255.088 154.416 265.604 162.233 274.487C162.672 274.994 163.126 275.501 163.587 276Z" fill="white"/>
<path d="M516.522 263.134C517.091 267.592 519.183 271.671 521.415 275.601C521.488 275.734 521.564 275.866 521.642 276H544.837C545.306 275.878 545.769 275.744 546.23 275.601C548.85 274.803 551.323 273.586 553.554 271.997C562.087 265.847 565.371 254.227 563.887 243.815C562.965 237.346 560.127 230.741 554.6 227.257C551.598 225.429 548.017 224.801 544.573 225.5C544.485 225.516 544.398 225.536 544.308 225.554C542.874 225.831 541.515 226.409 540.321 227.249C539.126 228.089 538.123 229.172 537.377 230.428C534.742 235.11 536.311 240.91 537.607 246.121C538.898 251.332 539.599 257.569 535.85 261.413C536.4 259.806 536.511 258.081 536.174 256.416C535.836 254.751 535.061 253.207 533.929 251.941C532.796 250.675 531.347 249.733 529.731 249.213C528.114 248.692 526.388 248.612 524.73 248.98C524.459 249.038 524.191 249.104 523.928 249.184C523.291 249.37 522.677 249.627 522.097 249.95C517.676 252.42 515.885 258.109 516.522 263.134Z" fill="#D3F1D9"/>
<path d="M530.275 275.601C529.632 275.75 528.988 275.882 528.339 276H531.846C532.305 275.876 532.762 275.744 533.215 275.601C534.211 275.289 535.192 274.932 536.158 274.529C540.073 272.938 543.55 270.431 546.296 267.217C547.616 265.644 548.693 263.883 549.494 261.992C550.361 259.854 550.913 257.602 551.13 255.305C551.528 250.558 551.211 245.777 550.188 241.124C549.226 236.327 547.673 231.668 545.565 227.253C545.312 226.724 545.049 226.198 544.779 225.676C544.76 225.633 544.732 225.595 544.696 225.564C544.661 225.534 544.619 225.512 544.573 225.5C544.481 225.482 544.386 225.502 544.308 225.554C544.214 225.608 544.145 225.695 544.114 225.799C544.083 225.902 544.093 226.013 544.142 226.109C546.316 230.349 547.963 234.839 549.048 239.478C550.166 244.029 550.657 248.711 550.508 253.395C550.428 257.751 549.069 261.987 546.599 265.576C544.198 268.808 541.039 271.4 537.401 273.125C535.126 274.214 532.735 275.044 530.275 275.601Z" fill="white"/>
<path d="M522.578 276H523.612C523.728 275.868 523.84 275.734 523.949 275.601C526.305 272.738 527.9 269.328 528.588 265.686C529.424 261.14 528.774 256.446 526.734 252.298C526.165 251.136 525.494 250.025 524.73 248.98C524.459 249.038 524.191 249.104 523.927 249.184C525.938 251.848 527.29 254.95 527.874 258.236C528.395 261.316 528.221 264.473 527.367 267.477C526.513 270.481 524.999 273.256 522.935 275.601C522.82 275.734 522.7 275.868 522.578 276Z" fill="white"/>
<path d="M307.457 160.766H234.863L234.094 138.441C234.06 137.473 234.237 136.51 234.612 135.617C234.986 134.724 235.55 133.923 236.264 133.269C236.978 132.614 237.825 132.123 238.747 131.827C239.669 131.532 240.644 131.44 241.605 131.558L283.849 136.732H283.854C290.117 136.749 296.118 139.248 300.542 143.682C304.966 148.116 307.453 154.124 307.457 160.388V160.766Z" fill="#3CBD96"/>
<path d="M275.102 81.5747H224.471C223.798 81.5745 223.131 81.707 222.509 81.9647C221.887 82.2223 221.321 82.6001 220.845 83.0763C220.369 83.5526 219.992 84.118 219.734 84.7403C219.476 85.3626 219.344 86.0296 219.344 86.7031V137.346C219.344 138.02 219.476 138.686 219.734 139.309C219.992 139.931 220.369 140.497 220.845 140.973C221.321 141.449 221.887 141.827 222.509 142.084C223.131 142.342 223.798 142.475 224.471 142.474H275.102C275.775 142.475 276.442 142.342 277.064 142.084C277.686 141.827 278.251 141.449 278.728 140.973C279.204 140.497 279.581 139.931 279.839 139.309C280.097 138.687 280.229 138.02 280.229 137.346V86.7031C280.229 86.0295 280.097 85.3626 279.839 84.7403C279.581 84.118 279.204 83.5526 278.728 83.0763C278.251 82.6001 277.686 82.2223 277.064 81.9647C276.442 81.707 275.775 81.5745 275.102 81.5747V81.5747Z" fill="#D3F1D9"/>
<path d="M263.699 119.444L239.794 124.1C238.376 124.374 236.907 124.075 235.709 123.268C234.512 122.46 233.683 121.211 233.406 119.793L231.568 110.354C231.293 108.936 231.593 107.467 232.4 106.269C233.207 105.071 234.456 104.242 235.874 103.964L259.779 99.3082C261.197 99.0336 262.666 99.3329 263.863 100.14C265.061 100.948 265.889 102.197 266.167 103.615L268.005 113.054C268.279 114.472 267.98 115.941 267.173 117.139C266.365 118.337 265.116 119.166 263.699 119.444Z" fill="#3A5653"/>
<path d="M258.916 108.293L240.673 111.846C240.339 111.911 239.994 111.841 239.712 111.651C239.43 111.461 239.235 111.167 239.17 110.833C239.105 110.499 239.175 110.153 239.365 109.871C239.555 109.589 239.849 109.394 240.183 109.329L258.426 105.776C258.76 105.711 259.106 105.781 259.388 105.971C259.67 106.161 259.864 106.456 259.929 106.789C259.994 107.123 259.924 107.469 259.734 107.751C259.544 108.033 259.25 108.228 258.916 108.293V108.293Z" fill="white"/>
<path d="M255.37 113.555L245.934 115.393C245.6 115.458 245.255 115.388 244.973 115.198C244.691 115.008 244.496 114.714 244.431 114.38C244.366 114.046 244.436 113.7 244.626 113.418C244.816 113.136 245.11 112.941 245.444 112.876L254.88 111.038C255.045 111.006 255.215 111.007 255.38 111.04C255.545 111.074 255.702 111.14 255.842 111.234C255.981 111.328 256.101 111.448 256.194 111.589C256.287 111.729 256.351 111.886 256.383 112.052C256.416 112.217 256.415 112.387 256.381 112.552C256.348 112.717 256.282 112.874 256.188 113.013C256.094 113.153 255.973 113.273 255.833 113.366C255.693 113.459 255.535 113.523 255.37 113.555Z" fill="white"/>
<path d="M280.229 86.7031V93.4341H219.344V86.7031C219.344 86.0296 219.476 85.3626 219.734 84.7403C219.992 84.118 220.369 83.5526 220.845 83.0763C221.321 82.6001 221.887 82.2223 222.509 81.9647C223.131 81.707 223.798 81.5745 224.471 81.5747H275.102C275.775 81.5745 276.442 81.707 277.064 81.9647C277.686 82.2223 278.251 82.6001 278.727 83.0763C279.204 83.5526 279.581 84.118 279.839 84.7403C280.097 85.3626 280.229 86.0296 280.229 86.7031Z" fill="#3CBD96"/>
<path d="M401.81 95.5419C401.458 94.407 400.862 93.363 400.064 92.4834C399.265 91.6038 398.284 90.9101 397.188 90.451C396.092 89.9919 394.91 89.7787 393.723 89.8264C392.536 89.874 391.374 90.1814 390.319 90.7268L320.663 65.7294L317.595 83.1348L387.029 102.233C388.063 103.946 389.688 105.22 391.598 105.813C393.508 106.407 395.569 106.279 397.391 105.454C399.213 104.63 400.669 103.165 401.483 101.338C402.298 99.5111 402.414 97.4488 401.81 95.5419V95.5419Z" fill="#FFB8B8"/>
<path opacity="0.2" d="M401.81 95.5419C401.458 94.407 400.862 93.363 400.064 92.4834C399.265 91.6038 398.284 90.9101 397.188 90.451C396.092 89.9919 394.91 89.7787 393.723 89.8264C392.536 89.874 391.374 90.1814 390.319 90.7268L320.663 65.7294L317.595 83.1348L387.029 102.233C388.063 103.946 389.688 105.22 391.598 105.813C393.508 106.407 395.569 106.279 397.391 105.454C399.213 104.63 400.669 103.165 401.483 101.338C402.298 99.5111 402.414 97.4488 401.81 95.5419V95.5419Z" fill="black"/>
<path d="M333.027 68.901L326.449 86.0893C326.262 86.5783 325.971 87.0213 325.598 87.388C325.224 87.7547 324.776 88.0365 324.283 88.2143C323.791 88.392 323.266 88.4615 322.744 88.418C322.222 88.3745 321.716 88.2191 321.26 87.9623L305.274 78.9625C302.778 77.9904 300.769 76.068 299.688 73.6169C298.607 71.1657 298.542 68.3858 299.507 65.8866C300.471 63.3874 302.388 61.3728 304.835 60.2845C307.283 59.1962 310.062 59.123 312.563 60.0809L330.414 64.041C330.925 64.1546 331.406 64.3769 331.823 64.693C332.241 65.0091 332.585 65.4115 332.833 65.8727C333.081 66.3339 333.226 66.8431 333.26 67.3657C333.293 67.8883 333.214 68.4119 333.027 68.901V68.901Z" fill="#3CBD96"/>
<path d="M407.293 111.457L382.334 122.805L385.611 135.145C391.939 158.973 393.618 183.798 390.557 208.262V208.262L408.805 212.074L423.932 173.492L418.638 129.614L407.293 111.457Z" fill="#3CBD96"/>
<path d="M456.265 168.574C439.866 168.574 426.502 180.499 425.854 195.431H486.677C486.028 180.499 472.664 168.574 456.265 168.574Z" fill="#3A5653"/>
<path d="M443.499 171.148C442.646 103.743 404.267 109.944 404.267 109.944C404.267 109.944 404.985 130.925 405.33 131.577C429.787 177.861 389.424 232.122 338.047 222.139C337.078 221.951 336.147 221.76 335.255 221.567C328.745 220.207 322.997 216.418 319.181 210.971C315.364 205.523 313.766 198.826 314.71 192.242C319.771 151.59 294.599 152.309 294.599 152.309H257.791L238.676 135.101C238.001 134.494 237.188 134.061 236.307 133.841C235.427 133.621 234.506 133.619 233.624 133.837C232.743 134.055 231.929 134.486 231.252 135.092C230.576 135.697 230.058 136.459 229.745 137.311L227.285 143.988C227.285 143.988 190.981 147.77 194.007 183.326H205.231C205.203 184.337 205.244 185.348 205.352 186.353L289.116 185.671C294.026 185.631 298.36 189.611 298.381 194.522C298.386 195.718 298.15 196.903 297.686 198.005C297.223 199.107 296.542 200.105 295.685 200.938C294.827 201.771 293.811 202.422 292.696 202.853C291.581 203.284 290.39 203.486 289.195 203.446L275.691 202.996C271.531 221.531 281.741 234.013 292.992 241.862C303.584 249.145 316.153 253.006 329.007 252.926H365.694C413.343 252.926 421.663 212.831 421.663 212.831C446.622 202.239 443.499 171.148 443.499 171.148Z" fill="#3A5653"/>
<path d="M453.996 274.865C477.493 274.865 496.54 255.813 496.54 232.311C496.54 208.809 477.493 189.757 453.996 189.757C430.5 189.757 411.453 208.809 411.453 232.311C411.453 255.813 430.5 274.865 453.996 274.865Z" fill="#3A5653"/>
<path d="M453.996 242.741C459.755 242.741 464.424 238.071 464.424 232.311C464.424 226.551 459.755 221.881 453.996 221.881C448.237 221.881 443.569 226.551 443.569 232.311C443.569 238.071 448.237 242.741 453.996 242.741Z" fill="white"/>
<path d="M239.198 274.865C266.244 274.865 288.17 252.934 288.17 225.881C288.17 198.827 266.244 176.896 239.198 176.896C212.151 176.896 190.225 198.827 190.225 225.881C190.225 252.934 212.151 274.865 239.198 274.865Z" fill="#3A5653"/>
<path d="M239.198 237.887C245.827 237.887 251.201 232.511 251.201 225.881C251.201 219.25 245.827 213.875 239.198 213.875C232.569 213.875 227.195 219.25 227.195 225.881C227.195 232.511 232.569 237.887 239.198 237.887Z" fill="white"/>
<path d="M382.405 126.158L373.424 101.761C372.956 100.489 372.743 99.1377 372.797 97.7838C372.851 96.43 373.172 95.1 373.74 93.8699C374.307 92.6397 375.112 91.5336 376.107 90.6145C377.103 89.6954 378.269 88.9815 379.541 88.5134L405.286 79.0332C407.523 78.2094 409.9 77.8342 412.282 77.9293C414.663 78.0243 417.003 78.5876 419.167 79.5871C421.331 80.5865 423.277 82.0025 424.894 83.7542C426.511 85.5059 427.767 87.559 428.59 89.7963C429.333 91.8043 429.712 93.9286 429.711 96.0697C429.701 98.7883 429.086 101.471 427.91 103.922C426.734 106.373 425.027 108.531 422.913 110.239C421.386 111.465 419.669 112.433 417.83 113.106L382.405 126.158Z" fill="#3A5653"/>
<path d="M429.332 96.0695C429.33 98.7328 428.731 101.362 427.579 103.763C426.427 106.164 424.752 108.276 422.676 109.944C419.492 109.104 416.528 107.58 413.992 105.479C411.456 103.377 409.408 100.748 407.99 97.7748C406.572 94.8015 405.818 91.5549 405.781 88.2608C405.745 84.9667 406.426 81.7041 407.777 78.6999C410.371 78.1356 413.059 78.1596 415.642 78.7702C418.226 79.3808 420.64 80.5624 422.708 82.2284C424.775 83.8943 426.443 86.0022 427.589 88.3974C428.736 90.7925 429.331 93.4141 429.332 96.0695V96.0695Z" fill="#3CBD96"/>
<path d="M200.436 188.244C206.284 188.244 211.024 182.486 211.024 175.383C211.024 168.28 206.284 162.522 200.436 162.522C194.588 162.522 189.847 168.28 189.847 175.383C189.847 182.486 194.588 188.244 200.436 188.244Z" fill="#3CBD96"/>
<path d="M340.404 220.907H349.676L354.088 196.852L340.402 196.853L340.404 220.907Z" fill="#FFB8B8"/>
<path d="M338.038 217.879L356.299 217.878H356.3C357.828 217.878 359.341 218.18 360.753 218.764C362.165 219.349 363.448 220.207 364.528 221.288C365.609 222.369 366.466 223.652 367.051 225.064C367.636 226.476 367.937 227.99 367.937 229.518V229.897L338.039 229.898L338.038 217.879Z" fill="#3A5653"/>
<path d="M351.166 211.034C351.058 211.034 350.95 211.029 350.841 211.019L338.009 210.084C337.49 210.036 336.989 209.869 336.544 209.597C336.1 209.324 335.724 208.954 335.446 208.513C335.167 208.072 334.994 207.573 334.939 207.055C334.884 206.537 334.948 206.012 335.128 205.523L352.301 166.929C352.424 166.585 352.474 166.22 352.449 165.855C352.423 165.491 352.322 165.136 352.153 164.812C351.984 164.485 351.747 164.197 351.459 163.967C351.171 163.738 350.837 163.572 350.48 163.481C342.405 161.369 321.685 155.747 303.749 149.169C296.065 146.35 291.225 142.278 289.365 137.063C286.912 130.189 290.541 123.919 290.696 123.656L290.818 123.45L307.695 124.985L325.992 126.541L366.088 148.047C369.447 149.865 371.999 152.881 373.236 156.496C374.472 160.111 374.301 164.059 372.758 167.554L354.272 209.017C354.005 209.617 353.569 210.127 353.018 210.485C352.467 210.843 351.824 211.034 351.166 211.034Z" fill="#3A5653"/>
<path d="M310.63 48.6299C320.889 48.6299 329.206 40.311 329.206 30.0491C329.206 19.7871 320.889 11.4682 310.63 11.4682C300.371 11.4682 292.054 19.7871 292.054 30.0491C292.054 40.311 300.371 48.6299 310.63 48.6299Z" fill="#FFB8B8"/>
<path d="M335.109 223.177H344.382L348.794 199.122L335.108 199.123L335.109 223.177Z" fill="#FFB8B8"/>
<path d="M332.744 220.149L351.005 220.148H351.005C352.534 220.148 354.047 220.449 355.459 221.034C356.871 221.619 358.154 222.476 359.234 223.557C360.315 224.638 361.172 225.921 361.757 227.334C362.342 228.746 362.643 230.259 362.643 231.788V232.166L332.744 232.167L332.744 220.149Z" fill="#3A5653"/>
<path d="M345.872 213.304C345.764 213.304 345.655 213.299 345.547 213.288L332.714 212.354C332.195 212.306 331.694 212.139 331.25 211.866C330.806 211.594 330.43 211.223 330.151 210.782C329.873 210.342 329.7 209.843 329.644 209.325C329.589 208.806 329.654 208.282 329.833 207.792L347.007 169.199C347.13 168.855 347.18 168.489 347.154 168.125C347.129 167.76 347.028 167.405 346.858 167.082C346.689 166.754 346.453 166.466 346.165 166.237C345.876 166.007 345.543 165.842 345.186 165.75C337.11 163.639 316.391 158.017 298.455 151.439C290.771 148.62 285.931 144.547 284.07 139.333C281.617 132.458 285.246 126.189 285.402 125.926L285.524 125.72L302.401 127.254L320.698 128.811L360.793 150.317C364.153 152.134 366.705 155.151 367.941 158.766C369.177 162.381 369.006 166.329 367.463 169.823L348.978 211.286C348.71 211.887 348.275 212.397 347.723 212.755C347.172 213.113 346.529 213.304 345.872 213.304Z" fill="#3A5653"/>
<path d="M316.359 59.1661L296.694 52.3574C296.694 52.3574 284.349 61.8442 290.28 85.3784C293.376 97.5229 292.474 110.342 287.708 121.934C287.134 123.368 286.473 124.765 285.728 126.118C285.728 126.118 307.661 152.596 328.082 132.927L320.141 94.7225C320.141 94.7225 332.62 69.3791 316.359 59.1661Z" fill="#3CBD96"/>
<path d="M312.936 49.2619C310.293 45.3035 308.206 39.8148 311.117 36.0486C313.99 32.3309 319.658 32.8786 324.058 31.2336C330.188 28.9424 333.742 21.7398 332.634 15.2895C331.525 8.83914 326.348 3.49201 320.181 1.30413C314.014 -0.883744 307.06 -0.172196 301.021 2.34728C293.587 5.44878 287.21 11.4484 284.535 19.0484C281.861 26.6483 283.291 35.7735 288.838 41.615C294.786 47.8778 304.121 49.5468 312.756 49.4455" fill="#3A5653"/>
<path d="M295.657 15.4965C292.325 18.2093 287.242 17.0044 283.666 14.6236C280.09 12.2428 277.188 8.85264 273.319 6.986C266.497 3.69518 258.25 5.88282 251.611 9.52798C244.972 13.1731 239.086 18.209 232.074 21.0696C225.061 23.9301 216.112 24.0715 210.802 18.6702C209.495 22.4572 209.388 26.5552 210.496 30.4052C211.604 34.2552 213.872 37.6695 216.991 40.1825C220.111 42.6954 223.929 44.1845 227.926 44.4465C231.922 44.7086 235.903 43.7308 239.323 41.6467C247.007 36.9651 251.251 27.149 259.87 24.5651C264.639 23.1352 269.76 24.2868 274.58 25.5342C279.4 26.7816 284.426 28.1294 289.29 27.0675C294.154 26.0056 298.704 21.6333 298.085 16.692L295.657 15.4965Z" fill="#3A5653"/>
<path d="M400.885 94.7851C400.397 93.7023 399.676 92.7398 398.775 91.9655C397.875 91.1911 396.815 90.6238 395.671 90.3035C394.527 89.9831 393.327 89.9175 392.155 90.1113C390.983 90.305 389.868 90.7535 388.888 91.425L316.681 75.215L315.784 92.866L387.043 103.25C388.28 104.821 390.05 105.885 392.019 106.238C393.987 106.592 396.017 106.211 397.723 105.167C399.429 104.124 400.694 102.491 401.276 100.577C401.859 98.6638 401.72 96.6029 400.885 94.7851V94.7851Z" fill="#FFB8B8"/>
<path d="M329.341 76.8365L324.934 94.7052C324.809 95.2136 324.575 95.689 324.25 96.099C323.924 96.5091 323.514 96.844 323.047 97.0812C322.58 97.3184 322.068 97.4521 321.545 97.4734C321.022 97.4946 320.5 97.4028 320.016 97.2043L303.042 90.2462C300.443 89.5911 298.211 87.9316 296.834 85.6321C295.458 83.3325 295.049 80.5805 295.699 77.9801C296.348 75.3797 298.002 73.1432 300.299 71.7613C302.595 70.3794 305.345 69.9651 307.946 70.6092L326.149 72.336C326.67 72.3856 327.175 72.547 327.628 72.8091C328.081 73.0713 328.473 73.428 328.776 73.8551C329.079 74.2822 329.286 74.7696 329.383 75.2841C329.481 75.7986 329.467 76.328 329.341 76.8364V76.8365Z" fill="#3CBD96"/>
<path d="M392.544 108.809C395.468 108.809 397.838 106.438 397.838 103.514C397.838 100.589 395.468 98.2181 392.544 98.2181C389.62 98.2181 387.25 100.589 387.25 103.514C387.25 106.438 389.62 108.809 392.544 108.809Z" fill="#3CBD96"/>
<path d="M627 275.243C626.999 275.444 626.92 275.636 626.778 275.778C626.636 275.919 626.444 275.999 626.244 276H0.756333C0.555741 276 0.363364 275.92 0.221524 275.778C0.0796843 275.636 0 275.444 0 275.243C0 275.043 0.0796843 274.85 0.221524 274.708C0.363364 274.567 0.555741 274.487 0.756333 274.487H626.244C626.444 274.488 626.636 274.567 626.778 274.709C626.92 274.851 626.999 275.043 627 275.243V275.243Z" fill="#3A5653"/>
</g>
<defs>
<clipPath id="clip0_8_2">
<rect width="627" height="276" fill="white"/>
</clipPath>
</defs>
</svg>
