<svg width="628" height="263" viewBox="0 0 628 263" fill="none" xmlns="http://www.w3.org/2000/svg">
<g clip-path="url(#clip0_8_83)">
<path d="M473.223 113.112V64.1375C473.223 59.2543 477.195 55.2818 482.078 55.2818H514.112C518.995 55.2818 522.967 59.2543 522.967 64.1375V113.112C522.967 117.995 518.995 121.968 514.112 121.968H482.078C477.195 121.968 473.223 117.995 473.223 113.112Z" fill="#3CBD96"/>
<path d="M489.628 76.4519H506.562V72.2179H489.628V76.4519Z" fill="#3A5653"/>
<path d="M493.862 69.0424H502.329V55.2818H493.862V69.0424Z" fill="#3A5653"/>
<path d="M493.862 121.968H502.329V108.207H493.862V121.968Z" fill="#3A5653"/>
<path d="M450.468 115.091H401.499C396.616 115.091 392.644 111.119 392.644 106.236V74.1972C392.644 69.314 396.616 65.3415 401.499 65.3415H450.468C455.35 65.3415 459.322 69.314 459.322 74.1972V106.236C459.322 111.119 455.35 115.091 450.468 115.091Z" fill="#3CBD96"/>
<path d="M435.509 72.2218H418.575V76.4558H435.509V72.2218Z" fill="#3A5653"/>
<path d="M406.403 94.4505V85.9824H392.644V94.4505H406.403Z" fill="#3A5653"/>
<path d="M459.322 94.4504V85.9824H445.563V94.4504H459.322Z" fill="#3A5653"/>
<path d="M53.243 206.672L45.0681 158.98C41.4356 137.787 57.1189 118.177 78.5889 117.065L195.129 111.028L222.943 65.1817C226.63 59.1037 233.223 55.3921 240.331 55.3921H324.068C330.65 55.3921 336.212 60.2738 337.066 66.8011L339.193 103.485L547.959 104.11L574.221 190.67L549.844 189.481L551.094 215.736L519.217 216.986L508.59 186.935C506.589 181.277 497.821 174.897 488.707 169.558C468.276 157.591 442.028 161.432 426.566 179.366C422.919 183.597 420.369 188.005 419.656 192.138L414.834 220.112L181.065 216.361L150.428 173.499C141.376 163.647 98.6466 160.029 94.7985 173.499L71.6819 207.609L53.243 206.672H53.243Z" fill="#E6E6E6"/>
<path d="M307.323 83.289L314.201 115.716L226.694 117.592L245.176 77.9058C246.852 74.3055 250.533 72.0703 254.5 72.2429L296.432 74.0662C301.741 74.2971 306.22 78.0907 307.323 83.289V83.289Z" fill="white"/>
<path d="M214.818 115.091L232.319 70.0825L227.737 65.4999L199.192 108.84L204.992 117.592L214.818 115.091Z" fill="white"/>
<path d="M465.462 261.37C488.246 261.37 506.716 242.898 506.716 220.112C506.716 197.326 488.246 178.854 465.462 178.854C442.679 178.854 424.209 197.326 424.209 220.112C424.209 242.898 442.679 261.37 465.462 261.37Z" fill="#3A5653"/>
<path d="M437.023 220.112C437.023 204.428 449.781 191.669 465.462 191.669C481.144 191.669 493.902 204.428 493.902 220.112C493.902 235.795 481.144 248.555 465.462 248.555C449.781 248.555 437.023 235.795 437.023 220.112ZM437.648 220.112C437.648 235.451 450.125 247.93 465.462 247.93C480.8 247.93 493.277 235.451 493.277 220.112C493.277 204.773 480.8 192.294 465.462 192.294C450.125 192.294 437.648 204.773 437.648 220.112Z" fill="white"/>
<path d="M441.086 220.112C441.086 233.576 452 244.492 465.463 244.492C478.926 244.492 489.839 233.576 489.839 220.112C489.839 206.647 478.926 195.732 465.463 195.732C452 195.732 441.086 206.647 441.086 220.112ZM481.308 214.274L476.989 217.089L475.33 214.543L481.308 214.274ZM474.733 228.592L475.883 225.779L479.505 230.543L474.733 228.592ZM463.674 238.24L466.713 233.084V238.24H463.674ZM463.674 208.39L466.713 203.234V208.39H463.674ZM450.17 230.543L453.792 225.779L454.942 228.592L450.17 230.543ZM448.367 214.274L454.345 214.543L452.686 217.089L448.367 214.274Z" fill="#E6E6E6"/>
<path d="M119.186 261.37C141.969 261.37 160.439 242.898 160.439 220.112C160.439 197.326 141.969 178.854 119.186 178.854C96.4021 178.854 77.9324 197.326 77.9324 220.112C77.9324 242.898 96.4021 261.37 119.186 261.37Z" fill="#3A5653"/>
<path d="M90.7458 220.112C90.7458 204.428 103.504 191.669 119.186 191.669C134.867 191.669 147.625 204.428 147.625 220.112C147.625 235.795 134.867 248.555 119.186 248.555C103.504 248.555 90.7458 235.795 90.7458 220.112ZM91.3709 220.112C91.3709 235.451 103.848 247.93 119.186 247.93C134.523 247.93 147 235.451 147 220.112C147 204.773 134.523 192.294 119.186 192.294C103.848 192.294 91.3709 204.773 91.3709 220.112Z" fill="white"/>
<path d="M94.8086 220.112C94.8086 233.576 105.722 244.492 119.185 244.492C132.648 244.492 143.562 233.576 143.562 220.112C143.562 206.647 132.648 195.732 119.185 195.732C105.722 195.732 94.8086 206.647 94.8086 220.112ZM135.031 214.274L130.712 217.089L129.053 214.543L135.031 214.274ZM128.456 228.592L129.606 225.779L133.228 230.543L128.456 228.592V228.592ZM117.396 238.24L120.436 233.084V238.24H117.396ZM117.396 208.39L120.436 203.234V208.39H117.396ZM103.893 230.543L107.515 225.779L108.665 228.592L103.893 230.543V230.543ZM102.09 214.274L108.068 214.543L106.409 217.089L102.09 214.274Z" fill="#E6E6E6"/>
<path d="M291.386 132.282H315.138V127.281H291.386V132.282Z" fill="#3A5653"/>
<path d="M626.166 230.454C625.945 229.777 624.267 230.075 624.106 229.469C623.945 228.865 625.555 228.359 626.79 226.657C627.013 226.35 628.416 224.416 627.878 223.603C626.858 222.061 619.76 225.901 618.056 223.746C617.682 223.273 617.528 222.462 616.414 220.951C615.971 220.35 615.687 220.06 615.347 220.068C614.865 220.08 614.693 220.683 613.935 221.776C612.799 223.414 612.389 223.208 611.641 224.551C611.085 225.547 611.019 226.184 610.619 226.221C610.052 226.274 609.817 225.034 609.125 224.986C608.418 224.937 607.71 226.162 607.36 227.12C606.701 228.917 607.109 230.291 607.199 231.66C607.297 233.148 607.067 235.326 605.451 238.121L590.205 262.415C593.479 257.462 602.773 243.958 606.518 239.004C607.599 237.574 608.76 236.138 610.548 235.868C612.27 235.608 614.364 236.46 617.288 236.41C617.629 236.404 618.58 236.376 618.811 235.872C619.002 235.456 618.527 235.094 618.7 234.702C618.931 234.177 619.973 234.403 621.393 234.054C622.393 233.808 623.073 233.402 623.658 233.052C623.834 232.947 626.461 231.356 626.166 230.454H626.166V230.454Z" fill="#F2F2F2"/>
<path d="M586.234 236.126C585.838 236.039 585.5 236.949 585.156 236.853C584.813 236.758 585.03 235.821 584.551 234.724C584.464 234.526 583.92 233.28 583.366 233.309C582.315 233.365 582.151 237.957 580.602 238.172C580.262 238.219 579.82 238.06 578.757 238.171C578.334 238.215 578.109 238.271 578.016 238.44C577.883 238.68 578.129 238.939 578.446 239.626C578.922 240.656 578.703 240.798 579.146 241.553C579.475 242.113 579.768 242.329 579.671 242.537C579.533 242.83 578.857 242.587 578.633 242.913C578.405 243.246 578.803 243.947 579.172 244.396C579.864 245.237 580.656 245.434 581.354 245.784C582.112 246.165 583.114 246.907 584.02 248.507L591.543 263C590.057 259.964 586.111 251.505 584.761 248.238C584.371 247.294 584.001 246.31 584.385 245.354C584.754 244.434 585.776 243.652 586.595 242.203C586.691 242.033 586.951 241.559 586.771 241.3C586.622 241.086 586.307 241.214 586.165 241.017C585.974 240.752 586.385 240.305 586.623 239.508C586.792 238.946 586.788 238.495 586.786 238.107C586.785 237.99 586.762 236.242 586.234 236.126V236.126V236.126Z" fill="#F2F2F2"/>
<path d="M593.74 239.662L593.976 237.479L594.121 237.342C594.792 236.707 595.212 236.035 595.369 235.344C595.394 235.234 595.414 235.123 595.434 235.009C595.512 234.561 595.61 234.002 596.041 233.423C596.283 233.1 596.922 232.37 597.581 232.625C597.758 232.691 597.878 232.807 597.962 232.929C597.983 232.908 598.004 232.887 598.027 232.864C598.312 232.587 598.511 232.486 598.703 232.388C598.85 232.313 599.002 232.236 599.26 232.03C599.373 231.939 599.463 231.858 599.54 231.79C599.771 231.583 600.067 231.342 600.472 231.437C600.901 231.555 601.048 231.964 601.146 232.236C601.32 232.719 601.374 233.052 601.41 233.273C601.423 233.353 601.437 233.444 601.449 233.474C601.543 233.711 602.723 233.772 603.166 233.797C604.164 233.852 605.028 233.898 605.236 234.582C605.385 235.071 605.074 235.604 604.286 236.209C604.04 236.397 603.795 236.527 603.581 236.624C603.713 236.748 603.817 236.917 603.824 237.148C603.838 237.693 603.279 238.111 602.162 238.393C601.884 238.464 601.511 238.558 601.022 238.534C600.792 238.523 600.591 238.488 600.419 238.455C600.393 238.553 600.346 238.655 600.261 238.751C600.013 239.036 599.611 239.108 599.066 238.948C598.464 238.78 597.989 238.552 597.569 238.352C597.203 238.177 596.887 238.028 596.622 237.987C596.129 237.918 595.669 238.222 595.118 238.628L593.74 239.662V239.662L593.74 239.662Z" fill="#F2F2F2"/>
<path d="M597.675 227.226L595.503 227.551L595.334 227.445C594.55 226.957 593.794 226.721 593.085 226.744C592.972 226.748 592.86 226.757 592.745 226.767C592.291 226.805 591.726 226.852 591.056 226.582C590.683 226.43 589.815 225.997 589.894 225.295C589.913 225.106 589.995 224.96 590.092 224.849C590.066 224.834 590.04 224.819 590.012 224.802C589.672 224.597 589.524 224.43 589.381 224.269C589.271 224.146 589.157 224.018 588.893 223.821C588.777 223.735 588.675 223.668 588.59 223.611C588.331 223.44 588.022 223.215 588.012 222.799C588.017 222.354 588.376 222.108 588.613 221.944C589.037 221.653 589.345 221.516 589.549 221.426C589.624 221.393 589.708 221.356 589.734 221.338C589.939 221.187 589.699 220.03 589.611 219.594C589.411 218.614 589.237 217.767 589.845 217.393C590.28 217.125 590.875 217.29 591.66 217.899C591.904 218.089 592.092 218.293 592.24 218.475C592.327 218.317 592.464 218.172 592.685 218.108C593.209 217.955 593.755 218.39 594.311 219.399C594.45 219.65 594.636 219.988 594.737 220.466C594.784 220.692 594.801 220.896 594.813 221.07C594.914 221.07 595.025 221.09 595.14 221.147C595.478 221.316 595.65 221.686 595.633 222.254C595.623 222.879 595.523 223.396 595.436 223.853C595.36 224.252 595.296 224.596 595.323 224.862C595.382 225.357 595.793 225.724 596.325 226.154L597.675 227.226H597.675L597.675 227.226Z" fill="#F2F2F2"/>
<path d="M597.968 220.703L598.204 218.519L598.349 218.382C599.02 217.748 599.44 217.076 599.598 216.385C599.623 216.275 599.642 216.163 599.662 216.05C599.74 215.601 599.838 215.043 600.269 214.463C600.511 214.14 601.15 213.411 601.809 213.665C601.987 213.732 602.107 213.847 602.19 213.97C602.211 213.948 602.233 213.927 602.255 213.904C602.54 213.628 602.739 213.526 602.931 213.429C603.078 213.354 603.231 213.276 603.488 213.07C603.601 212.98 603.692 212.899 603.768 212.83C603.999 212.624 604.295 212.382 604.7 212.478C605.129 212.595 605.277 213.005 605.374 213.276C605.549 213.76 605.602 214.093 605.638 214.313C605.651 214.394 605.666 214.485 605.677 214.514C605.771 214.751 606.951 214.812 607.395 214.838C608.393 214.892 609.256 214.939 609.464 215.622C609.613 216.111 609.302 216.645 608.514 217.25C608.269 217.438 608.023 217.568 607.809 217.665C607.941 217.789 608.046 217.958 608.052 218.188C608.067 218.734 607.507 219.152 606.39 219.434C606.113 219.505 605.739 219.599 605.251 219.575C605.02 219.564 604.819 219.528 604.647 219.496C604.621 219.593 604.574 219.695 604.49 219.792C604.241 220.077 603.839 220.149 603.294 219.989C602.693 219.821 602.217 219.593 601.798 219.392C601.431 219.218 601.115 219.068 600.85 219.028C600.357 218.959 599.897 219.263 599.347 219.668L597.968 220.703V220.703L597.968 220.703Z" fill="#F2F2F2"/>
<path d="M590.925 262.539L590.541 262.16L590.548 261.62L590.541 262.16L590.008 262.103C590.01 262.053 590.007 261.936 590.003 261.753C589.982 260.748 589.919 257.691 590.344 252.994C590.641 249.715 591.138 246.387 591.82 243.1C592.504 239.808 593.213 237.358 593.783 235.39C594.213 233.905 594.647 232.496 595.07 231.124C596.201 227.459 597.268 223.997 597.929 220.048C598.077 219.166 598.384 217.331 597.755 215.165C597.391 213.909 596.766 212.726 595.898 211.652L596.738 210.973C597.696 212.161 598.387 213.47 598.792 214.865C599.489 217.266 599.155 219.266 598.994 220.227C598.321 224.246 597.243 227.741 596.101 231.442C595.68 232.809 595.247 234.211 594.819 235.69C594.255 237.64 593.552 240.069 592.877 243.318C592.203 246.566 591.712 249.853 591.418 253.091C590.998 257.729 591.062 260.74 591.082 261.73C591.093 262.258 591.095 262.369 590.925 262.539V262.539V262.539Z" fill="#F2F2F2"/>
<path d="M593.593 212.894C593.55 212.885 593.506 212.874 593.463 212.861C592.577 212.612 591.866 211.89 591.35 210.715C591.108 210.162 591.051 209.58 590.937 208.42C590.919 208.241 590.84 207.336 590.937 206.136C591 205.352 591.085 205.038 591.298 204.79C591.535 204.515 591.854 204.357 592.191 204.278C592.2 204.174 592.234 204.073 592.302 203.977C592.579 203.577 593.043 203.741 593.295 203.827C593.422 203.872 593.58 203.93 593.758 203.96C594.038 204.009 594.205 203.96 594.458 203.886C594.7 203.816 595 203.729 595.416 203.736C596.236 203.747 596.843 204.116 597.044 204.237C598.098 204.871 598.462 205.882 598.883 207.052C598.967 207.287 599.245 208.135 599.309 209.227C599.356 210.015 599.253 210.338 599.135 210.568C598.893 211.042 598.523 211.262 597.604 211.724C596.644 212.209 596.162 212.451 595.767 212.576C594.849 212.864 594.272 213.046 593.593 212.894V212.894V212.894Z" fill="#F2F2F2"/>
<path d="M0 261.601C0 262.014 0.578345 262.345 1.29854 262.345H621.203C621.924 262.345 622.502 262.014 622.502 261.601C622.502 261.189 621.924 260.858 621.203 260.858H1.29854C0.578345 260.858 0 261.189 0 261.601Z" fill="#CCCCCC"/>
<path d="M314.987 256.904L323.666 256.904L327.794 223.425L314.985 223.426L314.987 256.904Z" fill="#FFB6B6"/>
<path d="M344.721 256.708C344.991 257.163 345.134 258.632 345.134 259.161C345.134 260.788 343.815 262.107 342.188 262.107L315.312 262.107C314.202 262.107 313.302 261.207 313.302 260.097V258.978C313.302 258.978 311.973 255.615 314.71 251.469C314.71 251.469 318.112 254.715 323.196 249.631L324.695 246.915L335.547 254.852L341.561 255.593C342.877 255.755 344.044 255.567 344.721 256.708H344.721L344.721 256.708Z" fill="#3A5653"/>
<path d="M275.995 256.904L284.673 256.904L288.802 223.425L275.993 223.426L275.995 256.904Z" fill="#FFB6B6"/>
<path d="M305.729 256.708C305.999 257.163 306.142 258.632 306.142 259.161C306.142 260.788 304.823 262.107 303.196 262.107L276.32 262.107C275.21 262.107 274.31 261.207 274.31 260.097V258.978C274.31 258.978 272.981 255.615 275.718 251.469C275.718 251.469 279.12 254.715 284.204 249.631L285.703 246.915L296.554 254.852L302.569 255.593C303.885 255.755 305.052 255.567 305.729 256.708H305.729L305.729 256.708Z" fill="#3A5653"/>
<path d="M313.613 28.3028L315.26 43.6818L296.039 42.034L299.334 27.7535L313.613 28.3028Z" fill="#FFB6B6"/>
<path opacity="0.1" d="M313.613 28.3028L315.26 43.6818L296.039 42.034L299.334 27.7535L313.613 28.3028Z" fill="black"/>
<path d="M306.748 30.2251C313.724 30.2251 319.379 24.5693 319.379 17.5924C319.379 10.6155 313.724 4.95964 306.748 4.95964C299.772 4.95964 294.117 10.6155 294.117 17.5924C294.117 24.5693 299.772 30.2251 306.748 30.2251Z" fill="#FFB6B6"/>
<path d="M314.986 37.3654L336.129 49.7235L329.202 83.2278L333.933 128.266L330.637 238.666L310.318 236.469L307.572 142.547L291.645 239.764H271.914L275.17 134.857L285.055 90.368L279.014 42.034L297.412 36.2669L314.986 37.3654Z" fill="#3A5653"/>
<path d="M315.809 21.1625C315.809 21.1625 316.908 17.3178 319.379 17.5924C321.85 17.867 322.4 15.67 321.85 14.5715C321.301 13.473 320.203 7.98051 320.203 7.98051C320.203 7.98051 320.752 4.13576 317.457 3.58651C314.162 3.03726 313.064 2.48801 312.514 1.38951C311.965 0.29101 303.727 -0.807486 300.981 0.840262C298.236 2.48801 296.039 5.64944 294.117 6.54035C292.194 7.43127 290.547 9.07901 291.645 11.8253C292.744 14.5715 294.337 19.9426 294.337 19.9426C294.337 19.9426 297.137 18.9655 297.686 20.6133C298.235 22.261 296.039 20.064 298.785 15.67C301.531 11.276 301.531 6.88201 305.924 8.52977C310.318 10.1775 315.26 9.62827 314.711 12.9238C314.162 16.2193 315.809 21.1625 315.809 21.1625L315.809 21.1625Z" fill="#3A5653"/>
<path d="M325.226 118.413C322.583 121.213 321.884 124.846 323.666 126.528C325.447 128.21 329.034 127.304 331.678 124.504C332.749 123.4 333.541 122.055 333.986 120.582L345.036 108.58L339.294 103.514L329.01 115.883C327.565 116.412 326.267 117.28 325.226 118.413V118.413Z" fill="#FFB6B6"/>
<path d="M335.907 49.4489L354.516 81.1571L357.273 95.6326L339.353 118.38L331.772 108.729L340.732 95.6326L326.258 70.1281L335.907 49.4489Z" fill="#3A5653"/>
<path d="M283.585 115.461V78.0753C283.585 72.3771 288.22 67.7416 293.918 67.7416H351.059C356.757 67.7416 361.392 72.3771 361.392 78.0753V115.461C361.392 121.159 356.757 125.795 351.059 125.795H293.918C288.22 125.795 283.585 121.159 283.585 115.461V115.461Z" fill="#3CBD96"/>
<path d="M311.373 91.338H331.134V86.3973H311.373V91.338Z" fill="#3A5653"/>
<path d="M329.514 125.463V115.582H313.459V125.463H329.514Z" fill="#3A5653"/>
<path d="M330.268 77.9541V68.0728H314.212V77.9541H330.268Z" fill="#3A5653"/>
<path d="M289.368 111.273C292.012 114.072 292.71 117.706 290.929 119.388C289.147 121.07 285.561 120.164 282.917 117.364C281.845 116.259 281.054 114.914 280.608 113.442L269.558 101.44L275.3 96.3732L285.584 108.743C287.03 109.272 288.327 110.14 289.368 111.273V111.273Z" fill="#FFB6B6"/>
<path d="M278.687 42.3086L260.078 74.0168L257.321 88.4923L275.241 111.24L282.823 101.589L273.863 88.4923L288.337 62.9879L278.687 42.3086Z" fill="#3A5653"/>
<path d="M47.2948 193.503C56.6153 193.503 64.1711 186.926 64.1711 178.812C64.1711 170.699 56.6153 164.122 47.2948 164.122C37.9742 164.122 30.4185 170.699 30.4185 178.812C30.4185 186.926 37.9742 193.503 47.2948 193.503Z" fill="#E6E6E6"/>
</g>
<defs>
<clipPath id="clip0_8_83">
<rect width="628" height="263" fill="white"/>
</clipPath>
</defs>
</svg>
